<svg xmlns="http://www.w3.org/2000/svg" version="1.1" xmlns:xlink="http://www.w3.org/1999/xlink" xmlns:svgjs="http://svgjs.dev/svgjs" width="1000" height="1000" viewBox="0 0 1000 1000"><rect width="1000" height="1000" fill="#ffffff"></rect><g transform="matrix(0.7,0,0,0.7,149.57576031419813,282.1265587044535)"><svg viewBox="0 0 396 247" data-background-color="#111111" preserveAspectRatio="xMidYMid meet" height="623" width="1000" xmlns="http://www.w3.org/2000/svg" xmlns:xlink="http://www.w3.org/1999/xlink"><g id="tight-bounds" transform="matrix(1,0,0,1,0.23999845082505544,-0.09999999999999432)"><svg viewBox="0 0 395.52 247.2" height="247.2" width="395.52"><g><svg></svg></g><g><svg viewBox="0 0 395.52 247.2" height="247.2" width="395.52"><g><g><path xmlns="http://www.w3.org/2000/svg" d="M48.752 177.75v-26.855l-6.087-10.483 34.021 0-5.939 10.341v26.997zM1.379 69.308h24.894l20.295 37.48h-23.426zM92.6 69.308h24.923l-21.526 37.48h-23.415zM139.234 145.496c3.941 2.217 7.929 4.215 11.964 5.996 4.054 1.781 8.251 3.287 12.589 4.518 4.357 1.212 8.923 2.141 13.697 2.785 4.793 0.663 9.899 0.995 15.317 0.995 6.517 0 12.068-0.426 16.653-1.279 4.566-0.871 8.298-2.056 11.196-3.552 2.899-1.497 5.002-3.287 6.309-5.371 1.326-2.084 1.989-4.348 1.989-6.792 0-0.832-0.073-1.626-0.22-2.384h23.322c-0.061 6.071-1.51 11.498-4.346 16.28-2.88 4.888-6.991 9.008-12.333 12.362-5.343 3.353-11.784 5.892-19.324 7.616-7.54 1.743-15.942 2.614-25.207 2.615-6.1 0-12.059-0.388-17.874-1.166-5.835-0.758-11.424-1.838-16.767-3.239-5.343-1.421-10.429-3.116-15.26-5.087-4.831-1.951-9.312-4.111-13.442-6.479zM132.726 103.779c0-2.955 0.398-5.892 1.194-8.81 0.815-2.899 2.112-5.684 3.893-8.355 1.781-2.652 4.083-5.125 6.905-7.417 2.823-2.292 6.233-4.272 10.231-5.939 3.997-1.667 8.62-2.974 13.868-3.922 5.248-0.947 11.225-1.421 17.931-1.421 4.869 0 9.757 0.265 14.664 0.796 4.888 0.53 9.662 1.288 14.322 2.274 4.642 0.966 9.113 2.131 13.413 3.495 4.301 1.364 8.298 2.88 11.993 4.547l-9.634 17.761c-3.05-1.345-6.337-2.586-9.861-3.723-3.505-1.137-7.18-2.112-11.026-2.927-3.827-0.834-7.786-1.497-11.879-1.989-4.111-0.493-8.289-0.739-12.532-0.739-6.062 0-11.045 0.445-14.948 1.336-3.922 0.871-7.038 1.989-9.349 3.353-2.311 1.364-3.912 2.889-4.803 4.575-0.909 1.686-1.364 3.363-1.364 5.03 0 1.896 0.5 3.591 1.499 5.084l-24.388 0c-0.086-0.977-0.129-1.98-0.129-3.009zM281.322 145.496c3.941 2.217 7.929 4.215 11.964 5.996 4.054 1.781 8.251 3.287 12.589 4.518 4.357 1.212 8.923 2.141 13.698 2.785 4.793 0.663 9.899 0.995 15.317 0.995 6.517 0 12.068-0.426 16.653-1.279 4.566-0.871 8.298-2.056 11.196-3.552 2.899-1.497 5.002-3.287 6.309-5.371 1.326-2.084 1.989-4.348 1.989-6.792 0-0.832-0.073-1.626-0.22-2.384h23.322c-0.061 6.071-1.51 11.498-4.346 16.28-2.88 4.888-6.991 9.008-12.333 12.362-5.343 3.353-11.784 5.892-19.325 7.616-7.54 1.743-15.942 2.614-25.206 2.615-6.1 0-12.059-0.388-17.875-1.166-5.835-0.758-11.424-1.838-16.766-3.239-5.343-1.421-10.429-3.116-15.261-5.087-4.831-1.951-9.312-4.111-13.441-6.479zM274.815 103.779c0-2.955 0.398-5.892 1.193-8.81 0.815-2.899 2.112-5.684 3.893-8.355 1.781-2.652 4.083-5.125 6.906-7.417 2.823-2.292 6.233-4.272 10.23-5.939 3.997-1.667 8.62-2.974 13.868-3.922 5.248-0.947 11.225-1.421 17.932-1.421 4.869 0 9.757 0.265 14.663 0.796 4.888 0.53 9.662 1.288 14.323 2.274 4.642 0.966 9.113 2.131 13.413 3.495 4.301 1.364 8.298 2.88 11.992 4.547l-9.633 17.761c-3.05-1.345-6.337-2.586-9.861-3.723-3.505-1.137-7.18-2.112-11.026-2.927-3.827-0.834-7.786-1.497-11.879-1.989-4.111-0.493-8.289-0.739-12.532-0.739-6.062 0-11.045 0.445-14.948 1.336-3.922 0.871-7.038 1.989-9.349 3.353-2.311 1.364-3.912 2.889-4.803 4.575-0.909 1.686-1.364 3.363-1.364 5.03 0 1.896 0.5 3.591 1.499 5.084l-24.388 0c-0.086-0.977-0.129-1.98-0.129-3.009z" fill="#000000" fill-rule="nonzero" stroke="none" stroke-width="1" stroke-linecap="butt" stroke-linejoin="miter" stroke-miterlimit="10" stroke-dasharray="" stroke-dashoffset="0" font-family="none" font-weight="none" font-size="none" text-anchor="none" style="mix-blend-mode: normal" data-fill-palette-color="tertiary"></path></g></g><g transform="matrix(1,0,0,1,2.842170943040401e-14,110.58631591309454)"><svg viewBox="0 0 395.5199999999999 26.027368173810917" height="26.027368173810917" width="395.5199999999999"><g><svg viewBox="0 0 395.5199999999999 26.027368173810917" height="26.027368173810917" width="395.5199999999999"><g><svg viewBox="0 0 395.5199999999999 26.027368173810917" height="26.027368173810917" width="395.5199999999999"><g><svg viewBox="0 0 395.5199999999999 26.027368173810917" height="26.027368173810917" width="395.5199999999999"><g id="textblocktransform"><svg viewBox="0 0 395.5199999999999 26.027368173810917" height="26.027368173810917" width="395.5199999999999" id="textblock"><g><svg viewBox="0 0 395.5199999999999 26.027368173810917" height="26.027368173810917" width="395.5199999999999"><g transform="matrix(1,0,0,1,0,0)"><svg width="395.5199999999999" viewBox="0.4399999976158142 -40.5 623.6199951171875 41.040000915527344" height="26.027368173810917" data-palette-color="#ffffff"><path d="M17.11 0L17.11-9.45 0.44-38.16 9.2-38.16 20.95-16.46 32.54-38.16 41.31-38.16 24.85-9.5 24.85 0 17.11 0ZM44.89-9.08L44.89-9.08Q44.89-11.16 45.8-12.87 46.7-14.58 48.51-15.81 50.31-17.04 53.01-17.71 55.71-18.38 59.3-18.38L59.3-18.38Q61.96-18.38 64.9-17.99 67.84-17.6 70.97-16.8L70.97-16.8Q70.85-18.16 70.14-19.32 69.43-20.48 68.17-21.33 66.92-22.17 65.15-22.63 63.38-23.1 61.13-23.1L61.13-23.1Q59.91-23.1 58.44-22.95 56.98-22.8 55.42-22.51 53.85-22.22 52.33-21.78 50.8-21.34 49.48-20.73L49.48-20.73 47.29-26.66Q48.92-27.25 50.79-27.73 52.66-28.22 54.61-28.58 56.56-28.93 58.52-29.13 60.47-29.32 62.3-29.32L62.3-29.32Q70.38-29.32 74.31-25.2 78.24-21.07 78.24-12.55L78.24-12.55 78.24 0 71.02 0 71.02-2.71Q69.89-2.05 68.56-1.46 67.23-0.88 65.67-0.44 64.11 0 62.31 0.26 60.52 0.51 58.52 0.51L58.52 0.51Q55.15 0.51 52.6-0.22 50.05-0.95 48.34-2.25 46.63-3.54 45.76-5.29 44.89-7.03 44.89-9.08ZM52.51-9.33L52.51-9.33Q52.51-8.62 52.88-7.97 53.24-7.32 54.05-6.82 54.86-6.32 56.11-6.02 57.37-5.71 59.15-5.71L59.15-5.71Q61.06-5.71 62.84-6.05 64.62-6.4 66.16-6.96 67.7-7.52 68.94-8.25 70.19-8.98 71.02-9.77L71.02-9.77 71.02-11.04Q69.36-11.5 67.73-11.82 66.11-12.13 64.63-12.32 63.16-12.5 61.85-12.57 60.54-12.65 59.57-12.65L59.57-12.65Q57.54-12.65 56.2-12.38 54.86-12.11 54.03-11.66 53.2-11.21 52.85-10.6 52.51-9.99 52.51-9.33ZM97.46 0L83.81-28.83 92.18-28.83 99.68-11.5 101.63-6.64 103.58-11.5 111.08-28.83 119.45-28.83 105.81 0 97.46 0ZM124.5-13.75L124.5-28.83 131.71-28.83 131.71-14.77Q131.71-12.77 132.15-11.12 132.59-9.47 133.65-8.3 134.71-7.13 136.48-6.48 138.25-5.83 140.89-5.83L140.89-5.83Q142.13-5.83 143.41-6.1 144.69-6.37 145.87-6.85 147.04-7.32 148.05-7.98 149.06-8.64 149.8-9.42L149.8-9.42 149.8-28.83 157.02-28.83 157.02 0 149.8 0 149.8-2.47Q147.14-0.88 144.45-0.2 141.76 0.49 139.35 0.49L139.35 0.49Q135.39 0.49 132.57-0.46 129.75-1.42 127.96-3.23 126.16-5.05 125.33-7.7 124.5-10.35 124.5-13.75L124.5-13.75ZM162.44 0L180.09-22.8 165.32-22.8 165.32-28.81 193.5-28.81 175.72-6.01 192.52-6.01 192.52 0 162.44 0ZM214.66-5.08L218.78-11.35Q220.86-10.18 223-9.24 225.13-8.3 227.43-7.65 229.72-7.01 232.25-6.67 234.78-6.32 237.63-6.32L237.63-6.32Q241.07-6.32 243.49-6.77 245.91-7.23 247.43-8.02 248.96-8.81 249.66-9.91 250.35-11.01 250.35-12.3L250.35-12.3Q250.35-14.38 248.62-15.59 246.88-16.8 243.27-16.8L243.27-16.8Q241.68-16.8 239.93-16.59 238.17-16.38 236.37-16.14 234.58-15.89 232.83-15.69 231.09-15.48 229.55-15.48L229.55-15.48Q226.99-15.48 224.63-16.14 222.28-16.8 220.46-18.12 218.64-19.43 217.56-21.41 216.49-23.39 216.49-26.03L216.49-26.03Q216.49-27.59 216.92-29.13 217.34-30.66 218.28-32.07 219.22-33.47 220.71-34.68 222.2-35.89 224.31-36.77 226.43-37.65 229.2-38.15 231.97-38.65 235.51-38.65L235.51-38.65Q238.07-38.65 240.66-38.37 243.25-38.09 245.7-37.57 248.15-37.06 250.42-36.34 252.69-35.62 254.65-34.74L254.65-34.74 251.25-28.49Q249.64-29.2 247.79-29.8 245.93-30.4 243.91-30.83 241.88-31.27 239.72-31.53 237.56-31.79 235.31-31.79L235.31-31.79Q232.11-31.79 230.05-31.32 227.99-30.86 226.77-30.14 225.55-29.42 225.07-28.53 224.59-27.64 224.59-26.76L224.59-26.76Q224.59-25.05 226.13-23.96 227.67-22.88 230.82-22.88L230.82-22.88Q232.09-22.88 233.74-23.06 235.39-23.24 237.2-23.46 239.02-23.68 240.92-23.86 242.81-24.05 244.59-24.05L244.59-24.05Q247.96-24.05 250.56-23.29 253.16-22.53 254.92-21.13 256.67-19.73 257.58-17.74 258.48-15.75 258.48-13.28L258.48-13.28Q258.48-9.99 256.96-7.41 255.43-4.83 252.61-3.06 249.79-1.29 245.81-0.38 241.83 0.54 236.95 0.54L236.95 0.54Q233.73 0.54 230.65 0.13 227.57-0.27 224.75-1.01 221.93-1.76 219.38-2.8 216.83-3.83 214.66-5.08L214.66-5.08ZM264.73-14.5L264.73-14.5Q264.73-17.43 265.92-20.1 267.12-22.78 269.37-24.83 271.61-26.88 274.87-28.1 278.13-29.32 282.28-29.32L282.28-29.32Q286.41-29.32 289.72-28.09 293.02-26.86 295.33-24.71 297.64-22.56 298.87-19.65 300.1-16.75 300.1-13.43L300.1-13.43Q300.1-13.01 300.09-12.54 300.08-12.06 300.03-11.67L300.03-11.67 272.79-11.67Q273.25-10.38 274.29-9.3 275.32-8.23 276.89-7.45 278.45-6.67 280.5-6.24 282.55-5.81 285.04-5.81L285.04-5.81Q287.53-5.81 290-6.34 292.46-6.86 294.71-7.67L294.71-7.67 297.15-2.15Q295.73-1.49 294.28-0.99 292.83-0.49 291.25-0.16 289.68 0.17 287.96 0.34 286.24 0.51 284.33 0.51L284.33 0.51Q279.47 0.51 275.81-0.66 272.15-1.83 269.68-3.86 267.22-5.88 265.97-8.62 264.73-11.35 264.73-14.5ZM272.79-17.31L292.44-17.31Q292.05-18.51 291.23-19.54 290.41-20.58 289.19-21.35 287.97-22.12 286.36-22.56 284.75-23 282.82-23L282.82-23Q280.77-23 279.08-22.53 277.4-22.07 276.13-21.29 274.86-20.51 274.02-19.48 273.18-18.46 272.79-17.31L272.79-17.31ZM308.06 0L308.06-40.5 315.29-40.5 315.29 0 308.06 0ZM328.35-32.74L328.35-32.74Q327.27-32.74 326.41-33.04 325.54-33.35 324.93-33.87 324.32-34.4 323.99-35.1 323.66-35.79 323.66-36.57L323.66-36.57Q323.66-37.38 323.99-38.07 324.32-38.77 324.93-39.28 325.54-39.79 326.41-40.1 327.27-40.41 328.35-40.41L328.35-40.41Q329.45-40.41 330.31-40.1 331.18-39.79 331.79-39.28 332.4-38.77 332.73-38.07 333.06-37.38 333.06-36.57L333.06-36.57Q333.06-35.79 332.73-35.1 332.4-34.4 331.79-33.87 331.18-33.35 330.31-33.04 329.45-32.74 328.35-32.74ZM324.73 0L324.73-28.81 331.96-28.81 331.96 0 324.73 0ZM341.41 0L341.41-28.81 348.63-28.81 348.63-26.37Q351.34-28.03 353.92-28.67 356.49-29.32 358.96-29.32L358.96-29.32Q362.4-29.32 365.28-28.22 368.16-27.12 370.21-24.9L370.21-24.9Q371.8-26.12 373.34-26.97 374.88-27.81 376.42-28.33 377.95-28.86 379.54-29.09 381.13-29.32 382.81-29.32L382.81-29.32Q386.35-29.32 389.23-28.36 392.11-27.39 394.15-25.49 396.19-23.58 397.3-20.74 398.41-17.9 398.41-14.16L398.41-14.16 398.41 0 391.21 0 391.21-12.99Q391.21-15.36 390.54-17.22 389.87-19.09 388.66-20.37 387.45-21.66 385.78-22.33 384.11-23 382.1-23L382.1-23Q381.01-23 379.86-22.79 378.71-22.58 377.62-22.14 376.54-21.7 375.59-21.03 374.63-20.36 373.93-19.46L373.93-19.46 373.93 0 366.72 0 366.72-12.99Q366.72-15.36 366.05-17.22 365.38-19.09 364.17-20.37 362.96-21.66 361.27-22.33 359.57-23 357.54-23L357.54-23Q356.3-23 355.04-22.74 353.78-22.49 352.62-22.02 351.46-21.56 350.45-20.9 349.44-20.24 348.63-19.41L348.63-19.41 348.63 0 341.41 0ZM422.65-5.08L426.78-11.35Q428.85-10.18 430.99-9.24 433.12-8.3 435.42-7.65 437.71-7.01 440.24-6.67 442.77-6.32 445.62-6.32L445.62-6.32Q449.07-6.32 451.48-6.77 453.9-7.23 455.43-8.02 456.95-8.81 457.65-9.91 458.34-11.01 458.34-12.3L458.34-12.3Q458.34-14.38 456.61-15.59 454.88-16.8 451.26-16.8L451.26-16.8Q449.68-16.8 447.92-16.59 446.16-16.38 444.37-16.14 442.57-15.89 440.83-15.69 439.08-15.48 437.54-15.48L437.54-15.48Q434.98-15.48 432.62-16.14 430.27-16.8 428.45-18.12 426.63-19.43 425.56-21.41 424.48-23.39 424.48-26.03L424.48-26.03Q424.48-27.59 424.91-29.13 425.34-30.66 426.28-32.07 427.22-33.47 428.71-34.68 430.19-35.89 432.31-36.77 434.42-37.65 437.19-38.15 439.96-38.65 443.5-38.65L443.5-38.65Q446.06-38.65 448.65-38.37 451.24-38.09 453.69-37.57 456.15-37.06 458.42-36.34 460.69-35.62 462.64-34.74L462.64-34.74 459.25-28.49Q457.64-29.2 455.78-29.8 453.93-30.4 451.9-30.83 449.87-31.27 447.71-31.53 445.55-31.79 443.3-31.79L443.3-31.79Q440.11-31.79 438.04-31.32 435.98-30.86 434.76-30.14 433.54-29.42 433.06-28.53 432.59-27.64 432.59-26.76L432.59-26.76Q432.59-25.05 434.13-23.96 435.66-22.88 438.81-22.88L438.81-22.88Q440.08-22.88 441.73-23.06 443.38-23.24 445.2-23.46 447.02-23.68 448.91-23.86 450.8-24.05 452.58-24.05L452.58-24.05Q455.95-24.05 458.55-23.29 461.15-22.53 462.91-21.13 464.67-19.73 465.57-17.74 466.47-15.75 466.47-13.28L466.47-13.28Q466.47-9.99 464.95-7.41 463.42-4.83 460.6-3.06 457.78-1.29 453.8-0.38 449.82 0.54 444.94 0.54L444.94 0.54Q441.72 0.54 438.64 0.13 435.57-0.27 432.75-1.01 429.93-1.76 427.37-2.8 424.82-3.83 422.65-5.08L422.65-5.08ZM474.09-13.75L474.09-28.83 481.29-28.83 481.29-14.77Q481.29-12.77 481.73-11.12 482.17-9.47 483.23-8.3 484.29-7.13 486.06-6.48 487.83-5.83 490.47-5.83L490.47-5.83Q491.72-5.83 493-6.1 494.28-6.37 495.45-6.85 496.62-7.32 497.64-7.98 498.65-8.64 499.38-9.42L499.38-9.42 499.38-28.83 506.61-28.83 506.61 0 499.38 0 499.38-2.47Q496.72-0.88 494.03-0.2 491.35 0.49 488.93 0.49L488.93 0.49Q484.98 0.49 482.16-0.46 479.34-1.42 477.54-3.23 475.75-5.05 474.92-7.7 474.09-10.35 474.09-13.75L474.09-13.75ZM512.03 0L529.68-22.8 514.91-22.8 514.91-28.81 543.08-28.81 525.31-6.01 542.1-6.01 542.1 0 512.03 0ZM547.72-14.5L547.72-14.5Q547.72-17.43 548.91-20.1 550.11-22.78 552.36-24.83 554.6-26.88 557.86-28.1 561.12-29.32 565.27-29.32L565.27-29.32Q569.4-29.32 572.7-28.09 576.01-26.86 578.32-24.71 580.63-22.56 581.86-19.65 583.09-16.75 583.09-13.43L583.09-13.43Q583.09-13.01 583.08-12.54 583.07-12.06 583.02-11.67L583.02-11.67 555.77-11.67Q556.24-10.38 557.27-9.3 558.31-8.23 559.87-7.45 561.44-6.67 563.49-6.24 565.54-5.81 568.03-5.81L568.03-5.81Q570.52-5.81 572.98-6.34 575.45-6.86 577.7-7.67L577.7-7.67 580.14-2.15Q578.72-1.49 577.27-0.99 575.82-0.49 574.24-0.16 572.67 0.17 570.95 0.34 569.23 0.51 567.32 0.51L567.32 0.51Q562.46 0.51 558.8-0.66 555.14-1.83 552.67-3.86 550.21-5.88 548.96-8.62 547.72-11.35 547.72-14.5ZM555.77-17.31L575.43-17.31Q575.04-18.51 574.22-19.54 573.4-20.58 572.18-21.35 570.96-22.12 569.35-22.56 567.74-23 565.81-23L565.81-23Q563.76-23 562.07-22.53 560.39-22.07 559.12-21.29 557.85-20.51 557.01-19.48 556.16-18.46 555.77-17.31L555.77-17.31ZM590.85 0L590.85-28.81 598.08-28.81 598.08-26.37Q600.96-28 603.59-28.66 606.21-29.32 608.72-29.32L608.72-29.32Q612.02-29.32 614.83-28.36 617.64-27.39 619.69-25.49 621.74-23.58 622.9-20.74 624.06-17.9 624.06-14.16L624.06-14.16 624.06 0 616.85 0 616.85-12.99Q616.85-15.36 616.18-17.22 615.51-19.09 614.25-20.37 613-21.66 611.2-22.33 609.41-23 607.19-23L607.19-23Q606.01-23 604.78-22.75 603.55-22.51 602.36-22.06 601.18-21.61 600.08-20.94 598.98-20.26 598.08-19.41L598.08-19.41 598.08 0 590.85 0Z" opacity="1" transform="matrix(1,0,0,1,0,0)" fill="#000000" class="undefined-text-0" data-fill-palette-color="primary" id="text-0"></path></svg></g></svg></g></svg></g></svg></g></svg></g></svg></g></svg></g></svg></g><defs></defs></svg><rect width="395.52" height="247.2" fill="none" stroke="none" visibility="hidden"></rect></g></svg></g></svg>